# Blender 4.3.2
# www.blender.org
mtllib 3_0.mtl
o green_stone_2.003
v 0.014928 -0.176567 -0.559757
v 0.215406 -0.023414 -0.414102
v -0.061646 -0.023414 -0.324081
v -0.232879 -0.023414 -0.559757
v -0.061646 -0.023414 -0.795432
v 0.215406 -0.023414 -0.705411
v 0.091502 0.224394 -0.324081
v -0.185550 0.224394 -0.414102
v -0.185550 0.224394 -0.705411
v 0.091502 0.224394 -0.795432
v 0.262735 0.224394 -0.559757
v 0.014928 0.377547 -0.559757
v -1.000000 -0.120775 1.000000
v -1.000000 0.120775 1.000000
v -1.000000 -0.120775 -1.000000
v -1.000000 0.120775 -1.000000
v 1.000000 -0.120775 1.000000
v 1.000000 0.120775 1.000000
v 1.000000 -0.120775 -1.000000
v 1.000000 0.120775 -1.000000
v 0.640368 0.092195 -0.648554
v 0.638033 0.203917 -0.638559
v 0.697644 0.090585 -0.617179
v 0.695309 0.202307 -0.607184
v 0.699100 0.084796 -0.552125
v 0.696766 0.196518 -0.542131
v 0.643280 0.080617 -0.518447
v 0.640945 0.192339 -0.508452
v 0.586003 0.082227 -0.549822
v 0.583669 0.193949 -0.539828
v 0.584547 0.088016 -0.614876
v 0.582213 0.199738 -0.604881
v 0.874489 0.209711 -0.715750
v 0.633488 0.216486 -0.847768
v 0.880616 0.185352 -0.442025
v 0.645742 0.167767 -0.300318
v 0.404740 0.174541 -0.432335
v 0.398613 0.198900 -0.706060
v 0.766418 0.347702 -0.639338
v 0.633179 0.351447 -0.712325
v 0.769805 0.334235 -0.488008
v 0.639954 0.324513 -0.409665
v 0.506715 0.328258 -0.482651
v 0.503328 0.341725 -0.633981
v 0.828652 0.363953 -0.675996
v 0.631308 0.369500 -0.784099
v 0.833669 0.344006 -0.451857
v 0.641342 0.329607 -0.335820
v 0.443998 0.335154 -0.443922
v 0.438981 0.355100 -0.668062
v 0.726414 0.508935 -0.602601
v 0.630707 0.511625 -0.655028
v 0.728847 0.499261 -0.493899
v 0.635573 0.492278 -0.437624
v 0.539867 0.494968 -0.490051
v 0.537433 0.504642 -0.598753
v 0.746851 0.514195 -0.614645
v 0.630094 0.517477 -0.678603
v 0.749819 0.502394 -0.482035
v 0.636031 0.493874 -0.413382
v 0.519274 0.497156 -0.477340
v 0.516306 0.508957 -0.609951
v 0.650660 0.645474 -0.545984
v 0.629639 0.646065 -0.557499
v 0.651195 0.643349 -0.522108
v 0.630708 0.641816 -0.509748
v 0.609686 0.642407 -0.521263
v 0.609152 0.644531 -0.545139
v -0.330595 0.073196 0.189445
v -0.333717 0.222605 0.202812
v -0.253997 0.071043 0.231405
v -0.257120 0.220452 0.244771
v -0.252050 0.063301 0.318403
v -0.255172 0.212709 0.331769
v -0.326700 0.057711 0.363441
v -0.329822 0.207120 0.376807
v -0.403298 0.059864 0.321482
v -0.406420 0.209273 0.334848
v -0.405245 0.067607 0.234484
v -0.408367 0.217016 0.247850
v -0.017497 0.230354 0.099582
v -0.339796 0.239413 -0.076969
v -0.009304 0.197777 0.465642
v -0.323408 0.174260 0.655152
v -0.645706 0.183319 0.478601
v -0.653900 0.215896 0.112541
v -0.162024 0.414893 0.201770
v -0.340208 0.419901 0.104163
v -0.157494 0.396883 0.404148
v -0.331148 0.383881 0.508919
v -0.509332 0.388890 0.411312
v -0.513862 0.406900 0.208934
v -0.078797 0.436625 0.152746
v -0.342711 0.444044 0.008177
v -0.072087 0.409950 0.452494
v -0.329292 0.390693 0.607674
v -0.593206 0.398111 0.463105
v -0.599915 0.424787 0.163357
v -0.215522 0.630514 0.250900
v -0.343514 0.634112 0.180788
v -0.212269 0.617577 0.396270
v -0.337006 0.608238 0.471529
v -0.464998 0.611836 0.401416
v -0.468252 0.624772 0.256046
v -0.188191 0.637548 0.234793
v -0.344334 0.641937 0.149260
v -0.184222 0.621766 0.412137
v -0.336395 0.610373 0.503947
v -0.492537 0.614762 0.418415
v -0.496507 0.630544 0.241071
v -0.316830 0.813112 0.326615
v -0.344943 0.813902 0.311216
v -0.316115 0.810271 0.358545
v -0.343513 0.808219 0.375075
v -0.371626 0.809010 0.359675
v -0.372341 0.811851 0.327746
v 0.476758 0.101817 -0.080128
v 0.474822 0.194454 -0.071841
v 0.524250 0.100482 -0.054113
v 0.522315 0.193119 -0.045825
v 0.525458 0.095681 -0.000172
v 0.523522 0.188318 0.008115
v 0.479173 0.092216 0.027753
v 0.477237 0.184853 0.036040
v 0.431681 0.093551 0.001738
v 0.429745 0.186188 0.010025
v 0.430474 0.098351 -0.052203
v 0.428538 0.190988 -0.043916
v 0.670886 0.199258 -0.135846
v 0.471053 0.204875 -0.245311
v 0.675966 0.179060 0.091120
v 0.481214 0.164479 0.208620
v 0.281382 0.170096 0.099155
v 0.276301 0.190294 -0.127811
v 0.581276 0.313677 -0.072487
v 0.470798 0.316782 -0.133005
v 0.584085 0.302510 0.052992
v 0.476415 0.294449 0.117953
v 0.365937 0.297554 0.057434
v 0.363128 0.308721 -0.068045
v 0.632879 0.327151 -0.102883
v 0.469246 0.331751 -0.192519
v 0.637039 0.310612 0.082968
v 0.477566 0.298672 0.179183
v 0.313934 0.303272 0.089547
v 0.309774 0.319811 -0.096304
v 0.548106 0.447367 -0.042025
v 0.468748 0.449597 -0.085496
v 0.550123 0.439346 0.048108
v 0.472783 0.433555 0.094770
v 0.393425 0.435786 0.051299
v 0.391408 0.443807 -0.038834
v 0.565052 0.451728 -0.052012
v 0.468240 0.454449 -0.105044
v 0.567513 0.441943 0.057945
v 0.473162 0.434879 0.114870
v 0.376350 0.437600 0.061838
v 0.373889 0.447385 -0.048119
v 0.485293 0.560582 0.004920
v 0.467862 0.561072 -0.004628
v 0.485736 0.558820 0.024717
v 0.468749 0.557548 0.034966
v 0.451318 0.558038 0.025418
v 0.450875 0.559800 0.005621
v 0.280395 0.101817 0.247145
v 0.278459 0.194454 0.255432
v 0.327887 0.100482 0.273160
v 0.325951 0.193119 0.281447
v 0.329094 0.095681 0.327101
v 0.327158 0.188318 0.335388
v 0.282809 0.092216 0.355026
v 0.280874 0.184853 0.363313
v 0.235317 0.093551 0.329010
v 0.233381 0.186188 0.337298
v 0.234110 0.098351 0.275070
v 0.232174 0.190988 0.283357
v 0.474522 0.199258 0.191427
v 0.274690 0.204875 0.081962
v 0.479603 0.179060 0.418393
v 0.284851 0.164479 0.535893
v 0.085018 0.170096 0.426427
v 0.079938 0.190294 0.199462
v 0.384913 0.313677 0.254786
v 0.274434 0.316782 0.194267
v 0.387721 0.302510 0.380265
v 0.280052 0.294449 0.445226
v 0.169573 0.297554 0.384707
v 0.166765 0.308721 0.259228
v 0.436515 0.327151 0.224390
v 0.272882 0.331751 0.134754
v 0.440675 0.310612 0.410241
v 0.281203 0.298672 0.506456
v 0.117570 0.303272 0.416820
v 0.113410 0.319811 0.230969
v 0.351742 0.447367 0.285248
v 0.272384 0.449597 0.241776
v 0.353760 0.439346 0.375381
v 0.276419 0.433555 0.422042
v 0.197062 0.435786 0.378571
v 0.195044 0.443807 0.288438
v 0.368688 0.451728 0.275261
v 0.271876 0.454449 0.222229
v 0.371149 0.441943 0.385218
v 0.276799 0.434879 0.442143
v 0.179987 0.437600 0.389111
v 0.177525 0.447385 0.279153
v 0.288929 0.560582 0.332193
v 0.271499 0.561072 0.322645
v 0.289372 0.558820 0.351990
v 0.272385 0.557548 0.362239
v 0.254954 0.558038 0.352691
v 0.254511 0.559800 0.332894
v 0.760370 0.093000 0.716092
v 0.758069 0.203125 0.725944
v 0.816828 0.091413 0.747019
v 0.814527 0.201538 0.756870
v 0.818263 0.085707 0.811142
v 0.815962 0.195832 0.820994
v 0.763241 0.081587 0.844339
v 0.760939 0.191712 0.854191
v 0.706783 0.083174 0.813412
v 0.704481 0.193299 0.823264
v 0.705347 0.088881 0.749288
v 0.703046 0.199006 0.759140
v 0.991145 0.208837 0.649856
v 0.753588 0.215514 0.519725
v 0.997185 0.184826 0.919669
v 0.765667 0.167492 1.059351
v 0.528110 0.174169 0.929220
v 0.522070 0.198180 0.659407
v 0.884619 0.344856 0.725176
v 0.753284 0.348547 0.653232
v 0.887958 0.331581 0.874343
v 0.759962 0.321998 0.951567
v 0.628628 0.325690 0.879624
v 0.625289 0.338964 0.730456
v 0.945963 0.360874 0.689042
v 0.751440 0.366342 0.582484
v 0.950909 0.341213 0.909978
v 0.761330 0.327019 1.024356
v 0.566807 0.332486 0.917799
v 0.561861 0.352148 0.696863
v 0.845187 0.503784 0.761388
v 0.750848 0.506436 0.709710
v 0.847585 0.494249 0.868537
v 0.755644 0.487365 0.924007
v 0.661305 0.490017 0.872330
v 0.658907 0.499552 0.765181
v 0.865332 0.508969 0.749516
v 0.750243 0.512204 0.686472
v 0.868258 0.497336 0.880231
v 0.756095 0.488939 0.947902
v 0.641007 0.492173 0.884858
v 0.638081 0.503806 0.754143
v 0.770516 0.638372 0.817196
v 0.749794 0.638955 0.805845
v 0.771042 0.636278 0.840730
v 0.750848 0.634766 0.852914
v 0.730127 0.635348 0.841563
v 0.729600 0.637443 0.818029
v 0.727605 0.079615 0.306584
v 0.724749 0.216291 0.318811
v 0.797675 0.077645 0.344967
v 0.794819 0.214321 0.357194
v 0.799456 0.070563 0.424551
v 0.796600 0.207239 0.436778
v 0.731168 0.065450 0.465752
v 0.728312 0.202126 0.477979
v 0.661098 0.067420 0.427368
v 0.658242 0.204096 0.439595
v 0.659317 0.074502 0.347784
v 0.656461 0.211178 0.360011
v 1.014020 0.223380 0.224378
v 0.719188 0.231667 0.062873
v 1.021516 0.193579 0.559243
v 0.734179 0.172066 0.732602
v 0.439347 0.180354 0.571097
v 0.431852 0.210154 0.236233
v 0.881811 0.392192 0.317858
v 0.718811 0.396774 0.228569
v 0.885954 0.375717 0.502989
v 0.727099 0.363824 0.598832
v 0.564100 0.368405 0.509543
v 0.559956 0.384881 0.324411
v 0.957945 0.412073 0.273012
v 0.716522 0.418859 0.140763
v 0.964082 0.387671 0.547215
v 0.728797 0.370055 0.689171
v 0.487374 0.376841 0.556922
v 0.481236 0.401243 0.282718
v 0.832871 0.589438 0.362801
v 0.715787 0.592729 0.298664
v 0.835848 0.577604 0.495783
v 0.721740 0.569061 0.564627
v 0.604656 0.572352 0.500490
v 0.601679 0.584186 0.367508
v 0.857873 0.595873 0.348067
v 0.715037 0.599888 0.269823
v 0.861504 0.581436 0.510297
v 0.722300 0.571014 0.594284
v 0.579463 0.575028 0.516040
v 0.575832 0.589466 0.353809
v 0.740197 0.756475 0.432064
v 0.714480 0.757198 0.417976
v 0.740850 0.753876 0.461273
v 0.715787 0.752000 0.476394
v 0.690071 0.752722 0.462306
v 0.689417 0.755322 0.433098
vn 0.1876 -0.7947 0.5774
vn 0.6071 -0.7947 -0.0000
vn -0.4911 -0.7947 0.3568
vn -0.4911 -0.7947 -0.3568
vn 0.1876 -0.7947 -0.5774
vn 0.9822 -0.1876 -0.0000
vn 0.3035 -0.1876 0.9342
vn -0.7946 -0.1876 0.5774
vn -0.7946 -0.1876 -0.5774
vn 0.3035 -0.1876 -0.9342
vn 0.7946 0.1876 0.5774
vn -0.3035 0.1876 0.9342
vn -0.9822 0.1876 -0.0000
vn -0.3035 0.1876 -0.9342
vn 0.7946 0.1876 -0.5774
vn 0.4911 0.7947 0.3568
vn -0.1876 0.7947 0.5774
vn -0.6071 0.7947 -0.0000
vn -0.1876 0.7947 -0.5774
vn 0.4911 0.7947 -0.3568
vn -1.0000 -0.0000 -0.0000
vn -0.0000 -0.0000 -1.0000
vn 1.0000 -0.0000 -0.0000
vn -0.0000 -0.0000 1.0000
vn -0.0000 -1.0000 -0.0000
vn -0.0000 1.0000 -0.0000
vn 0.4805 0.0881 -0.8726
vn 0.9995 0.0227 -0.0204
vn 0.5191 -0.0654 0.8522
vn -0.4805 -0.0881 0.8726
vn 0.0367 -0.9923 -0.1180
vn -0.9995 -0.0227 0.0204
vn -0.5191 0.0654 -0.8522
vn 0.0208 -0.9958 -0.0891
vn -0.8208 0.5670 0.0688
vn -0.0124 -0.9960 -0.0884
vn 0.0540 -0.9945 -0.0897
vn 0.0048 -0.9982 -0.0601
vn 0.0036 -0.9931 -0.1173
vn 0.0380 -0.9974 -0.0607
vn -0.0663 -0.9954 0.0699
vn 0.4077 0.5325 0.7418
vn 0.3764 0.6567 -0.6535
vn -0.4321 0.6383 -0.6370
vn -0.4009 0.5141 0.7582
vn 0.7963 0.6038 0.0359
vn 0.4226 0.4915 0.7615
vn 0.2009 -0.9753 -0.0913
vn -0.1600 -0.9835 -0.0839
vn 0.1142 -0.9913 0.0662
vn 0.1072 -0.9635 -0.2451
vn -0.0732 -0.9676 -0.2415
vn 0.1974 -0.9761 -0.0913
vn 0.3903 0.6199 -0.6807
vn -0.4454 0.6009 -0.6637
vn -0.4132 0.4725 0.7785
vn 0.8243 0.5652 0.0318
vn -0.8472 0.5272 0.0659
vn 0.3854 0.6334 -0.6711
vn -0.1565 -0.9841 -0.0841
vn 0.1124 -0.9917 0.0632
vn 0.1055 -0.9645 -0.2421
vn -0.0714 -0.9685 -0.2385
vn -0.0646 -0.9957 0.0668
vn -0.0208 0.9958 0.0891
vn -0.4407 0.6146 -0.6542
vn -0.4088 0.4877 0.7714
vn 0.8144 0.5793 0.0333
vn -0.8378 0.5418 0.0670
vn 0.4173 0.5065 0.7545
vn -0.8379 0.5418 0.0670
vn -0.4088 0.4877 0.7713
vt 0.023457 0.708768
vt 0.027668 0.716061
vt 0.019247 0.716061
vt 0.031879 0.708768
vt 0.036089 0.716061
vt 0.057142 0.708768
vt 0.061353 0.716061
vt 0.052932 0.716061
vt 0.048721 0.708768
vt 0.044510 0.716061
vt 0.040300 0.708768
vt 0.031879 0.723354
vt 0.023457 0.723354
vt 0.057142 0.723354
vt 0.048721 0.723354
vt 0.040300 0.723354
vt 0.015036 0.723354
vt 0.027668 0.730647
vt 0.019247 0.730647
vt 0.052932 0.730647
vt 0.044510 0.730647
vt 0.036089 0.730647
vt 0.030871 0.228288
vt 0.047553 0.228288
vt 0.047553 0.244971
vt 0.030871 0.244971
vt 0.047553 0.261653
vt 0.030871 0.261653
vt 0.047553 0.278335
vt 0.030871 0.278335
vt 0.047553 0.295018
vt 0.030871 0.295018
vt 0.014188 0.261653
vt 0.014188 0.278335
vt 0.064235 0.261653
vt 0.064235 0.278335
vt 0.432876 0.766435
vt 0.432876 0.788878
vt 0.425395 0.788878
vt 0.425395 0.766435
vt 0.417914 0.788878
vt 0.417914 0.766435
vt 0.410433 0.788878
vt 0.410433 0.766435
vt 0.402952 0.788878
vt 0.402952 0.766435
vt 0.161810 0.317891
vt 0.169291 0.317891
vt 0.395471 0.788878
vt 0.395471 0.766435
vt 0.387990 0.788878
vt 0.387990 0.766435
vt 0.180513 0.294999
vt 0.189843 0.289613
vt 0.189843 0.278840
vt 0.180513 0.273453
vt 0.171184 0.278840
vt 0.171184 0.289613
vt 0.154329 0.317891
vt 0.176773 0.317891
vt 0.184254 0.317891
vt 0.191735 0.317891
vt 0.146848 0.317891
vt 0.167399 0.289613
vt 0.158070 0.294999
vt 0.148740 0.289613
vt 0.148740 0.278840
vt 0.158070 0.273453
vt 0.167399 0.278840
s 0
usemtl Main_material
f 1/1/1 2/2/1 3/3/1
f 2/2/2 1/4/2 6/5/2
f 1/6/3 3/7/3 4/8/3
f 1/9/4 4/8/4 5/10/4
f 1/11/5 5/10/5 6/5/5
f 2/2/6 6/5/6 11/12/6
f 3/3/7 2/2/7 7/13/7
f 4/8/8 3/7/8 8/14/8
f 5/10/9 4/8/9 9/15/9
f 6/5/10 5/10/10 10/16/10
f 2/2/11 11/12/11 7/13/11
f 3/3/12 7/13/12 8/17/12
f 4/8/13 8/14/13 9/15/13
f 5/10/14 9/15/14 10/16/14
f 6/5/15 10/16/15 11/12/15
f 7/13/16 11/12/16 12/18/16
f 8/17/17 7/13/17 12/19/17
f 9/15/18 8/14/18 12/20/18
f 10/16/19 9/15/19 12/21/19
f 11/12/20 10/16/20 12/22/20
f 13/23/21 14/24/21 16/25/21 15/26/21
f 15/26/22 16/25/22 20/27/22 19/28/22
f 19/28/23 20/27/23 18/29/23 17/30/23
f 17/30/24 18/29/24 14/31/24 13/32/24
f 15/33/25 19/28/25 17/30/25 13/34/25
f 20/27/26 16/35/26 14/36/26 18/29/26
f 21/37/27 22/38/27 24/39/27 23/40/27
f 23/40/28 24/39/28 26/41/28 25/42/28
f 25/42/29 26/41/29 28/43/29 27/44/29
f 27/44/30 28/43/30 30/45/30 29/46/30
f 30/47/31 28/48/31 36/48/31 37/47/31
f 29/46/32 30/45/32 32/49/32 31/50/32
f 31/50/33 32/49/33 22/51/33 21/52/33
f 21/53/34 23/54/34 25/55/34 27/56/34 29/57/34 31/58/34
f 38/59/35 37/47/35 43/47/35 44/59/35
f 26/60/36 24/61/36 33/61/36 35/60/36
f 32/59/37 30/47/37 37/47/37 38/59/37
f 24/61/38 22/62/38 34/62/38 33/61/38
f 28/48/39 26/60/39 35/60/39 36/48/39
f 22/63/40 32/59/40 38/59/40 34/63/40
f 43/47/41 42/48/41 48/48/41 49/47/41
f 36/48/42 35/60/42 41/60/42 42/48/42
f 33/61/43 34/62/43 40/62/43 39/61/43
f 34/63/44 38/59/44 44/59/44 40/63/44
f 37/47/45 36/48/45 42/48/45 43/47/45
f 35/60/46 33/61/46 39/61/46 41/60/46
f 48/48/47 47/60/47 53/60/47 54/48/47
f 41/60/48 39/61/48 45/61/48 47/60/48
f 44/59/49 43/47/49 49/47/49 50/59/49
f 42/48/50 41/60/50 47/60/50 48/48/50
f 39/61/51 40/62/51 46/62/51 45/61/51
f 40/63/52 44/59/52 50/59/52 46/63/52
f 53/60/53 51/61/53 57/61/53 59/60/53
f 45/61/54 46/62/54 52/62/54 51/61/54
f 46/63/55 50/59/55 56/59/55 52/63/55
f 49/47/56 48/48/56 54/48/56 55/47/56
f 47/60/57 45/61/57 51/61/57 53/60/57
f 50/59/58 49/47/58 55/47/58 56/59/58
f 57/61/59 58/62/59 64/62/59 63/61/59
f 56/59/60 55/47/60 61/47/60 62/59/60
f 54/48/61 53/60/61 59/60/61 60/48/61
f 51/61/62 52/62/62 58/62/62 57/61/62
f 52/63/63 56/59/63 62/59/63 58/63/63
f 55/47/64 54/48/64 60/48/64 61/47/64
f 63/64/65 64/65/65 68/66/65 67/67/65 66/68/65 65/69/65
f 58/63/66 62/59/66 68/59/66 64/63/66
f 61/47/67 60/48/67 66/48/67 67/47/67
f 59/60/68 57/61/68 63/61/68 65/60/68
f 62/59/69 61/47/69 67/47/69 68/59/69
f 60/48/70 59/60/70 65/60/70 66/48/70
f 69/37/27 70/38/27 72/39/27 71/40/27
f 71/40/28 72/39/28 74/41/28 73/42/28
f 73/42/29 74/41/29 76/43/29 75/44/29
f 75/44/30 76/43/30 78/45/30 77/46/30
f 78/47/31 76/48/31 84/48/31 85/47/31
f 77/46/32 78/45/32 80/49/32 79/50/32
f 79/50/33 80/49/33 70/51/33 69/52/33
f 69/53/34 71/54/34 73/55/34 75/56/34 77/57/34 79/58/34
f 86/59/35 85/47/35 91/47/35 92/59/35
f 74/60/36 72/61/36 81/61/36 83/60/36
f 80/59/37 78/47/37 85/47/37 86/59/37
f 72/61/38 70/62/38 82/62/38 81/61/38
f 76/48/39 74/60/39 83/60/39 84/48/39
f 70/63/40 80/59/40 86/59/40 82/63/40
f 91/47/41 90/48/41 96/48/41 97/47/41
f 84/48/42 83/60/42 89/60/42 90/48/42
f 81/61/43 82/62/43 88/62/43 87/61/43
f 82/63/44 86/59/44 92/59/44 88/63/44
f 85/47/45 84/48/45 90/48/45 91/47/45
f 83/60/46 81/61/46 87/61/46 89/60/46
f 96/48/47 95/60/47 101/60/47 102/48/47
f 89/60/48 87/61/48 93/61/48 95/60/48
f 92/59/49 91/47/49 97/47/49 98/59/49
f 90/48/50 89/60/50 95/60/50 96/48/50
f 87/61/51 88/62/51 94/62/51 93/61/51
f 88/63/52 92/59/52 98/59/52 94/63/52
f 101/60/53 99/61/53 105/61/53 107/60/53
f 93/61/54 94/62/54 100/62/54 99/61/54
f 94/63/55 98/59/55 104/59/55 100/63/55
f 97/47/56 96/48/56 102/48/56 103/47/56
f 95/60/57 93/61/57 99/61/57 101/60/57
f 98/59/58 97/47/58 103/47/58 104/59/58
f 105/61/59 106/62/59 112/62/59 111/61/59
f 104/59/60 103/47/60 109/47/60 110/59/60
f 102/48/61 101/60/61 107/60/61 108/48/61
f 99/61/62 100/62/62 106/62/62 105/61/62
f 100/63/63 104/59/63 110/59/63 106/63/63
f 103/47/64 102/48/64 108/48/64 109/47/64
f 111/64/65 112/65/65 116/66/65 115/67/65 114/68/65 113/69/65
f 106/63/66 110/59/66 116/59/66 112/63/66
f 109/47/67 108/48/67 114/48/67 115/47/67
f 107/60/68 105/61/68 111/61/68 113/60/68
f 110/59/71 109/47/71 115/47/71 116/59/71
f 108/48/70 107/60/70 113/60/70 114/48/70
f 117/37/27 118/38/27 120/39/27 119/40/27
f 119/40/28 120/39/28 122/41/28 121/42/28
f 121/42/29 122/41/29 124/43/29 123/44/29
f 123/44/30 124/43/30 126/45/30 125/46/30
f 126/47/31 124/48/31 132/48/31 133/47/31
f 125/46/32 126/45/32 128/49/32 127/50/32
f 127/50/33 128/49/33 118/51/33 117/52/33
f 117/53/34 119/54/34 121/55/34 123/56/34 125/57/34 127/58/34
f 134/59/35 133/47/35 139/47/35 140/59/35
f 122/60/36 120/61/36 129/61/36 131/60/36
f 128/59/37 126/47/37 133/47/37 134/59/37
f 120/61/38 118/62/38 130/62/38 129/61/38
f 124/48/39 122/60/39 131/60/39 132/48/39
f 118/63/40 128/59/40 134/59/40 130/63/40
f 139/47/41 138/48/41 144/48/41 145/47/41
f 132/48/42 131/60/42 137/60/42 138/48/42
f 129/61/43 130/62/43 136/62/43 135/61/43
f 130/63/44 134/59/44 140/59/44 136/63/44
f 133/47/45 132/48/45 138/48/45 139/47/45
f 131/60/46 129/61/46 135/61/46 137/60/46
f 144/48/47 143/60/47 149/60/47 150/48/47
f 137/60/48 135/61/48 141/61/48 143/60/48
f 140/59/49 139/47/49 145/47/49 146/59/49
f 138/48/50 137/60/50 143/60/50 144/48/50
f 135/61/51 136/62/51 142/62/51 141/61/51
f 136/63/52 140/59/52 146/59/52 142/63/52
f 149/60/53 147/61/53 153/61/53 155/60/53
f 141/61/54 142/62/54 148/62/54 147/61/54
f 142/63/55 146/59/55 152/59/55 148/63/55
f 145/47/56 144/48/56 150/48/56 151/47/56
f 143/60/57 141/61/57 147/61/57 149/60/57
f 146/59/58 145/47/58 151/47/58 152/59/58
f 153/61/59 154/62/59 160/62/59 159/61/59
f 152/59/60 151/47/60 157/47/60 158/59/60
f 150/48/61 149/60/61 155/60/61 156/48/61
f 147/61/62 148/62/62 154/62/62 153/61/62
f 148/63/63 152/59/63 158/59/63 154/63/63
f 151/47/64 150/48/64 156/48/64 157/47/64
f 159/64/65 160/65/65 164/66/65 163/67/65 162/68/65 161/69/65
f 154/63/66 158/59/66 164/59/66 160/63/66
f 157/47/67 156/48/67 162/48/67 163/47/67
f 155/60/68 153/61/68 159/61/68 161/60/68
f 158/59/69 157/47/69 163/47/69 164/59/69
f 156/48/70 155/60/70 161/60/70 162/48/70
f 165/37/27 166/38/27 168/39/27 167/40/27
f 167/40/28 168/39/28 170/41/28 169/42/28
f 169/42/29 170/41/29 172/43/29 171/44/29
f 171/44/30 172/43/30 174/45/30 173/46/30
f 174/47/31 172/48/31 180/48/31 181/47/31
f 173/46/32 174/45/32 176/49/32 175/50/32
f 175/50/33 176/49/33 166/51/33 165/52/33
f 165/53/34 167/54/34 169/55/34 171/56/34 173/57/34 175/58/34
f 182/59/35 181/47/35 187/47/35 188/59/35
f 170/60/36 168/61/36 177/61/36 179/60/36
f 176/59/37 174/47/37 181/47/37 182/59/37
f 168/61/38 166/62/38 178/62/38 177/61/38
f 172/48/39 170/60/39 179/60/39 180/48/39
f 166/63/40 176/59/40 182/59/40 178/63/40
f 187/47/41 186/48/41 192/48/41 193/47/41
f 180/48/42 179/60/42 185/60/42 186/48/42
f 177/61/43 178/62/43 184/62/43 183/61/43
f 178/63/44 182/59/44 188/59/44 184/63/44
f 181/47/45 180/48/45 186/48/45 187/47/45
f 179/60/46 177/61/46 183/61/46 185/60/46
f 192/48/47 191/60/47 197/60/47 198/48/47
f 185/60/48 183/61/48 189/61/48 191/60/48
f 188/59/49 187/47/49 193/47/49 194/59/49
f 186/48/50 185/60/50 191/60/50 192/48/50
f 183/61/51 184/62/51 190/62/51 189/61/51
f 184/63/52 188/59/52 194/59/52 190/63/52
f 197/60/53 195/61/53 201/61/53 203/60/53
f 189/61/54 190/62/54 196/62/54 195/61/54
f 190/63/55 194/59/55 200/59/55 196/63/55
f 193/47/56 192/48/56 198/48/56 199/47/56
f 191/60/57 189/61/57 195/61/57 197/60/57
f 194/59/58 193/47/58 199/47/58 200/59/58
f 201/61/59 202/62/59 208/62/59 207/61/59
f 200/59/60 199/47/60 205/47/60 206/59/60
f 198/48/61 197/60/61 203/60/61 204/48/61
f 195/61/62 196/62/62 202/62/62 201/61/62
f 196/63/63 200/59/63 206/59/63 202/63/63
f 199/47/64 198/48/64 204/48/64 205/47/64
f 207/64/65 208/65/65 212/66/65 211/67/65 210/68/65 209/69/65
f 202/63/66 206/59/66 212/59/66 208/63/66
f 205/47/67 204/48/67 210/48/67 211/47/67
f 203/60/68 201/61/68 207/61/68 209/60/68
f 206/59/71 205/47/71 211/47/71 212/59/71
f 204/48/70 203/60/70 209/60/70 210/48/70
f 213/37/27 214/38/27 216/39/27 215/40/27
f 215/40/28 216/39/28 218/41/28 217/42/28
f 217/42/29 218/41/29 220/43/29 219/44/29
f 219/44/30 220/43/30 222/45/30 221/46/30
f 222/47/31 220/48/31 228/48/31 229/47/31
f 221/46/32 222/45/32 224/49/32 223/50/32
f 223/50/33 224/49/33 214/51/33 213/52/33
f 213/53/34 215/54/34 217/55/34 219/56/34 221/57/34 223/58/34
f 230/59/35 229/47/35 235/47/35 236/59/35
f 218/60/36 216/61/36 225/61/36 227/60/36
f 224/59/37 222/47/37 229/47/37 230/59/37
f 216/61/38 214/62/38 226/62/38 225/61/38
f 220/48/39 218/60/39 227/60/39 228/48/39
f 214/63/40 224/59/40 230/59/40 226/63/40
f 235/47/41 234/48/41 240/48/41 241/47/41
f 228/48/42 227/60/42 233/60/42 234/48/42
f 225/61/43 226/62/43 232/62/43 231/61/43
f 226/63/44 230/59/44 236/59/44 232/63/44
f 229/47/45 228/48/45 234/48/45 235/47/45
f 227/60/46 225/61/46 231/61/46 233/60/46
f 240/48/47 239/60/47 245/60/47 246/48/47
f 233/60/48 231/61/48 237/61/48 239/60/48
f 236/59/49 235/47/49 241/47/49 242/59/49
f 234/48/50 233/60/50 239/60/50 240/48/50
f 231/61/51 232/62/51 238/62/51 237/61/51
f 232/63/52 236/59/52 242/59/52 238/63/52
f 245/60/53 243/61/53 249/61/53 251/60/53
f 237/61/54 238/62/54 244/62/54 243/61/54
f 238/63/55 242/59/55 248/59/55 244/63/55
f 241/47/56 240/48/56 246/48/56 247/47/56
f 239/60/57 237/61/57 243/61/57 245/60/57
f 242/59/58 241/47/58 247/47/58 248/59/58
f 249/61/59 250/62/59 256/62/59 255/61/59
f 248/59/60 247/47/60 253/47/60 254/59/60
f 246/48/61 245/60/61 251/60/61 252/48/61
f 243/61/62 244/62/62 250/62/62 249/61/62
f 244/63/63 248/59/63 254/59/63 250/63/63
f 247/47/64 246/48/64 252/48/64 253/47/64
f 255/64/65 256/65/65 260/66/65 259/67/65 258/68/65 257/69/65
f 250/63/66 254/59/66 260/59/66 256/63/66
f 253/47/72 252/48/72 258/48/72 259/47/72
f 251/60/68 249/61/68 255/61/68 257/60/68
f 254/59/71 253/47/71 259/47/71 260/59/71
f 252/48/70 251/60/70 257/60/70 258/48/70
f 261/37/27 262/38/27 264/39/27 263/40/27
f 263/40/28 264/39/28 266/41/28 265/42/28
f 265/42/29 266/41/29 268/43/29 267/44/29
f 267/44/30 268/43/30 270/45/30 269/46/30
f 270/47/31 268/48/31 276/48/31 277/47/31
f 269/46/32 270/45/32 272/49/32 271/50/32
f 271/50/33 272/49/33 262/51/33 261/52/33
f 261/53/34 263/54/34 265/55/34 267/56/34 269/57/34 271/58/34
f 278/59/35 277/47/35 283/47/35 284/59/35
f 266/60/36 264/61/36 273/61/36 275/60/36
f 272/59/37 270/47/37 277/47/37 278/59/37
f 264/61/38 262/62/38 274/62/38 273/61/38
f 268/48/39 266/60/39 275/60/39 276/48/39
f 262/63/40 272/59/40 278/59/40 274/63/40
f 283/47/41 282/48/41 288/48/41 289/47/41
f 276/48/42 275/60/42 281/60/42 282/48/42
f 273/61/43 274/62/43 280/62/43 279/61/43
f 274/63/44 278/59/44 284/59/44 280/63/44
f 277/47/45 276/48/45 282/48/45 283/47/45
f 275/60/46 273/61/46 279/61/46 281/60/46
f 288/48/47 287/60/47 293/60/47 294/48/47
f 281/60/48 279/61/48 285/61/48 287/60/48
f 284/59/49 283/47/49 289/47/49 290/59/49
f 282/48/50 281/60/50 287/60/50 288/48/50
f 279/61/51 280/62/51 286/62/51 285/61/51
f 280/63/52 284/59/52 290/59/52 286/63/52
f 293/60/53 291/61/53 297/61/53 299/60/53
f 285/61/54 286/62/54 292/62/54 291/61/54
f 286/63/55 290/59/55 296/59/55 292/63/55
f 289/47/56 288/48/56 294/48/56 295/47/56
f 287/60/57 285/61/57 291/61/57 293/60/57
f 290/59/58 289/47/58 295/47/58 296/59/58
f 297/61/59 298/62/59 304/62/59 303/61/59
f 296/59/60 295/47/60 301/47/60 302/59/60
f 294/48/61 293/60/61 299/60/61 300/48/61
f 291/61/62 292/62/62 298/62/62 297/61/62
f 292/63/63 296/59/63 302/59/63 298/63/63
f 295/47/64 294/48/64 300/48/64 301/47/64
f 303/64/65 304/65/65 308/66/65 307/67/65 306/68/65 305/69/65
f 298/63/66 302/59/66 308/59/66 304/63/66
f 301/47/67 300/48/67 306/48/67 307/47/67
f 299/60/68 297/61/68 303/61/68 305/60/68
f 302/59/71 301/47/71 307/47/71 308/59/71
f 300/48/70 299/60/70 305/60/70 306/48/70
