# Blender 4.3.2
# www.blender.org
mtllib 3_1.mtl
o Orange__Tile_2.006
v -1.000000 -0.120775 1.000000
v -1.000000 0.120775 1.000000
v -1.000000 -0.120775 -1.000000
v -1.000000 0.120775 -1.000000
v 1.000000 -0.120775 1.000000
v 1.000000 0.120775 1.000000
v 1.000000 -0.120775 -1.000000
v 1.000000 0.120775 -1.000000
v 0.014928 -0.176567 -0.559757
v 0.215406 -0.023414 -0.414102
v -0.061646 -0.023414 -0.324081
v -0.232879 -0.023414 -0.559757
v -0.061646 -0.023414 -0.795432
v 0.215406 -0.023414 -0.705411
v 0.091502 0.224394 -0.324081
v -0.185550 0.224394 -0.414102
v -0.185550 0.224394 -0.705411
v 0.091502 0.224394 -0.795432
v 0.262735 0.224394 -0.559757
v 0.014928 0.377547 -0.559757
v 0.640368 0.092195 -0.648554
v 0.638033 0.203917 -0.638559
v 0.697644 0.090585 -0.617179
v 0.695309 0.202307 -0.607184
v 0.699100 0.084796 -0.552125
v 0.696766 0.196518 -0.542131
v 0.643280 0.080617 -0.518447
v 0.640945 0.192339 -0.508452
v 0.586003 0.082227 -0.549822
v 0.583669 0.193949 -0.539828
v 0.584547 0.088016 -0.614876
v 0.582213 0.199738 -0.604881
v 0.874489 0.209711 -0.715750
v 0.633488 0.216486 -0.847768
v 0.880616 0.185352 -0.442025
v 0.645742 0.167767 -0.300318
v 0.404740 0.174541 -0.432335
v 0.398613 0.198901 -0.706060
v 0.766418 0.347702 -0.639338
v 0.633179 0.351447 -0.712325
v 0.769805 0.334235 -0.488008
v 0.639954 0.324513 -0.409665
v 0.506715 0.328258 -0.482651
v 0.503328 0.341725 -0.633981
v 0.828652 0.363953 -0.675996
v 0.631308 0.369500 -0.784099
v 0.833669 0.344006 -0.451857
v 0.641342 0.329607 -0.335820
v 0.443998 0.335154 -0.443922
v 0.438981 0.355100 -0.668062
v 0.726414 0.508935 -0.602601
v 0.630707 0.511625 -0.655028
v 0.728847 0.499261 -0.493899
v 0.635574 0.492278 -0.437624
v 0.539867 0.494968 -0.490051
v 0.537434 0.504642 -0.598753
v 0.746851 0.514195 -0.614645
v 0.630094 0.517477 -0.678603
v 0.749819 0.502394 -0.482035
v 0.636031 0.493874 -0.413382
v 0.519274 0.497156 -0.477340
v 0.516306 0.508957 -0.609951
v 0.650660 0.645474 -0.545984
v 0.629639 0.646065 -0.557499
v 0.651195 0.643350 -0.522108
v 0.630708 0.641816 -0.509748
v 0.609686 0.642407 -0.521263
v 0.609152 0.644531 -0.545139
v -0.330595 0.073196 0.189445
v -0.333717 0.222605 0.202812
v -0.253997 0.071043 0.231405
v -0.257120 0.220452 0.244771
v -0.252050 0.063301 0.318402
v -0.255172 0.212709 0.331769
v -0.326700 0.057711 0.363441
v -0.329822 0.207120 0.376807
v -0.403298 0.059864 0.321482
v -0.406420 0.209273 0.334848
v -0.405245 0.067607 0.234484
v -0.408367 0.217016 0.247850
v -0.017497 0.230354 0.099582
v -0.339796 0.239413 -0.076969
v -0.009304 0.197777 0.465642
v -0.323408 0.174260 0.655152
v -0.645706 0.183319 0.478601
v -0.653900 0.215896 0.112541
v -0.162024 0.414893 0.201770
v -0.340208 0.419901 0.104163
v -0.157494 0.396883 0.404148
v -0.331148 0.383881 0.508919
v -0.509332 0.388890 0.411312
v -0.513862 0.406900 0.208934
v -0.078797 0.436625 0.152746
v -0.342711 0.444044 0.008177
v -0.072087 0.409950 0.452494
v -0.329292 0.390693 0.607674
v -0.593206 0.398111 0.463105
v -0.599915 0.424787 0.163357
v -0.215522 0.630514 0.250900
v -0.343514 0.634112 0.180788
v -0.212269 0.617577 0.396270
v -0.337006 0.608238 0.471529
v -0.464998 0.611836 0.401416
v -0.468252 0.624772 0.256046
v -0.188191 0.637548 0.234793
v -0.344334 0.641937 0.149260
v -0.184222 0.621766 0.412136
v -0.336395 0.610373 0.503947
v -0.492537 0.614762 0.418414
v -0.496507 0.630544 0.241071
v -0.316830 0.813112 0.326615
v -0.344943 0.813902 0.311216
v -0.316115 0.810271 0.358545
v -0.343513 0.808219 0.375075
v -0.371626 0.809009 0.359675
v -0.372341 0.811851 0.327746
v 0.476758 0.101817 -0.080128
v 0.474822 0.194454 -0.071841
v 0.524250 0.100482 -0.054113
v 0.522315 0.193119 -0.045825
v 0.525458 0.095681 -0.000172
v 0.523522 0.188318 0.008115
v 0.479173 0.092216 0.027753
v 0.477237 0.184853 0.036040
v 0.431681 0.093551 0.001738
v 0.429745 0.186188 0.010025
v 0.430473 0.098351 -0.052203
v 0.428538 0.190988 -0.043916
v 0.670886 0.199258 -0.135846
v 0.471054 0.204875 -0.245311
v 0.675966 0.179060 0.091120
v 0.481214 0.164479 0.208620
v 0.281382 0.170096 0.099155
v 0.276301 0.190294 -0.127811
v 0.581276 0.313677 -0.072487
v 0.470798 0.316782 -0.133005
v 0.584085 0.302510 0.052992
v 0.476415 0.294449 0.117953
v 0.365937 0.297554 0.057434
v 0.363128 0.308721 -0.068045
v 0.632879 0.327151 -0.102883
v 0.469246 0.331751 -0.192519
v 0.637039 0.310612 0.082968
v 0.477566 0.298672 0.179183
v 0.313934 0.303272 0.089547
v 0.309774 0.319811 -0.096304
v 0.548106 0.447367 -0.042025
v 0.468748 0.449597 -0.085496
v 0.550123 0.439346 0.048108
v 0.472783 0.433555 0.094770
v 0.393425 0.435786 0.051299
v 0.391408 0.443807 -0.038834
v 0.565052 0.451728 -0.052012
v 0.468240 0.454450 -0.105044
v 0.567513 0.441943 0.057945
v 0.473162 0.434879 0.114870
v 0.376350 0.437600 0.061838
v 0.373889 0.447385 -0.048119
v 0.485293 0.560582 0.004920
v 0.467862 0.561072 -0.004628
v 0.485736 0.558820 0.024717
v 0.468749 0.557548 0.034966
v 0.451318 0.558038 0.025418
v 0.450875 0.559800 0.005621
v 0.280395 0.101817 0.247144
v 0.278459 0.194454 0.255432
v 0.327887 0.100482 0.273160
v 0.325951 0.193119 0.281447
v 0.329094 0.095681 0.327101
v 0.327158 0.188318 0.335388
v 0.282809 0.092216 0.355026
v 0.280874 0.184853 0.363313
v 0.235317 0.093551 0.329010
v 0.233381 0.186188 0.337298
v 0.234110 0.098351 0.275070
v 0.232174 0.190988 0.283357
v 0.474522 0.199258 0.191427
v 0.274690 0.204875 0.081961
v 0.479603 0.179060 0.418393
v 0.284851 0.164479 0.535893
v 0.085018 0.170096 0.426427
v 0.079938 0.190294 0.199462
v 0.384913 0.313677 0.254786
v 0.274434 0.316782 0.194267
v 0.387721 0.302510 0.380265
v 0.280052 0.294449 0.445226
v 0.169573 0.297554 0.384707
v 0.166765 0.308721 0.259228
v 0.436515 0.327151 0.224390
v 0.272882 0.331751 0.134754
v 0.440675 0.310612 0.410241
v 0.281203 0.298672 0.506456
v 0.117570 0.303272 0.416820
v 0.113410 0.319811 0.230969
v 0.351742 0.447367 0.285248
v 0.272384 0.449597 0.241776
v 0.353760 0.439346 0.375381
v 0.276419 0.433555 0.422042
v 0.197062 0.435786 0.378571
v 0.195044 0.443807 0.288438
v 0.368688 0.451728 0.275261
v 0.271876 0.454450 0.222229
v 0.371149 0.441943 0.385218
v 0.276799 0.434879 0.442143
v 0.179987 0.437600 0.389111
v 0.177525 0.447385 0.279153
v 0.288929 0.560582 0.332193
v 0.271499 0.561072 0.322645
v 0.289372 0.558820 0.351990
v 0.272385 0.557548 0.362239
v 0.254954 0.558038 0.352691
v 0.254511 0.559800 0.332894
v 0.760370 0.093000 0.716092
v 0.758069 0.203125 0.725943
v 0.816828 0.091413 0.747019
v 0.814527 0.201538 0.756870
v 0.818263 0.085707 0.811142
v 0.815962 0.195832 0.820994
v 0.763241 0.081587 0.844339
v 0.760939 0.191712 0.854191
v 0.706783 0.083174 0.813412
v 0.704481 0.193299 0.823264
v 0.705347 0.088881 0.749288
v 0.703046 0.199006 0.759140
v 0.991145 0.208837 0.649856
v 0.753588 0.215514 0.519725
v 0.997185 0.184826 0.919669
v 0.765667 0.167492 1.059351
v 0.528110 0.174169 0.929220
v 0.522070 0.198180 0.659407
v 0.884619 0.344856 0.725176
v 0.753284 0.348547 0.653232
v 0.887958 0.331581 0.874343
v 0.759962 0.321998 0.951567
v 0.628628 0.325690 0.879624
v 0.625289 0.338964 0.730456
v 0.945963 0.360874 0.689041
v 0.751440 0.366342 0.582484
v 0.950909 0.341213 0.909978
v 0.761330 0.327019 1.024356
v 0.566807 0.332487 0.917799
v 0.561861 0.352148 0.696863
v 0.845187 0.503784 0.761388
v 0.750848 0.506436 0.709710
v 0.847585 0.494249 0.868537
v 0.755644 0.487365 0.924007
v 0.661305 0.490017 0.872330
v 0.658907 0.499552 0.765181
v 0.865332 0.508969 0.749516
v 0.750243 0.512204 0.686472
v 0.868258 0.497336 0.880231
v 0.756095 0.488939 0.947902
v 0.641007 0.492174 0.884858
v 0.638081 0.503806 0.754143
v 0.770516 0.638372 0.817196
v 0.749794 0.638955 0.805845
v 0.771042 0.636278 0.840730
v 0.750848 0.634766 0.852914
v 0.730127 0.635348 0.841563
v 0.729600 0.637443 0.818029
v 0.727605 0.079615 0.306584
v 0.724749 0.216291 0.318811
v 0.797675 0.077645 0.344967
v 0.794819 0.214321 0.357194
v 0.799456 0.070563 0.424551
v 0.796600 0.207239 0.436778
v 0.731168 0.065450 0.465752
v 0.728312 0.202126 0.477979
v 0.661098 0.067420 0.427368
v 0.658242 0.204096 0.439595
v 0.659317 0.074502 0.347784
v 0.656461 0.211178 0.360011
v 1.014020 0.223380 0.224378
v 0.719188 0.231667 0.062873
v 1.021516 0.193579 0.559243
v 0.734179 0.172066 0.732602
v 0.439347 0.180354 0.571097
v 0.431852 0.210154 0.236233
v 0.881811 0.392193 0.317858
v 0.718811 0.396774 0.228569
v 0.885954 0.375717 0.502989
v 0.727099 0.363824 0.598832
v 0.564100 0.368405 0.509543
v 0.559956 0.384881 0.324411
v 0.957945 0.412073 0.273012
v 0.716522 0.418859 0.140763
v 0.964082 0.387671 0.547215
v 0.728797 0.370055 0.689171
v 0.487374 0.376841 0.556922
v 0.481236 0.401243 0.282718
v 0.832871 0.589438 0.362801
v 0.715787 0.592729 0.298664
v 0.835848 0.577604 0.495783
v 0.721740 0.569061 0.564628
v 0.604656 0.572352 0.500490
v 0.601679 0.584186 0.367508
v 0.857873 0.595873 0.348066
v 0.715037 0.599888 0.269823
v 0.861504 0.581436 0.510297
v 0.722300 0.571014 0.594284
v 0.579463 0.575028 0.516040
v 0.575832 0.589466 0.353809
v 0.740197 0.756475 0.432064
v 0.714480 0.757198 0.417976
v 0.740850 0.753876 0.461272
v 0.715787 0.752000 0.476394
v 0.690071 0.752723 0.462306
v 0.689417 0.755322 0.433098
vn -1.0000 -0.0000 -0.0000
vn -0.0000 -0.0000 -1.0000
vn 1.0000 -0.0000 -0.0000
vn -0.0000 -0.0000 1.0000
vn -0.0000 -1.0000 -0.0000
vn -0.0000 1.0000 -0.0000
vn 0.1876 -0.7947 0.5774
vn 0.6071 -0.7947 -0.0000
vn -0.4911 -0.7947 0.3568
vn -0.4911 -0.7947 -0.3568
vn 0.1876 -0.7947 -0.5774
vn 0.9822 -0.1876 -0.0000
vn 0.3035 -0.1876 0.9342
vn -0.7946 -0.1876 0.5774
vn -0.7946 -0.1876 -0.5774
vn 0.3035 -0.1876 -0.9342
vn 0.7946 0.1876 0.5774
vn -0.3035 0.1876 0.9342
vn -0.9822 0.1876 -0.0000
vn -0.3035 0.1876 -0.9342
vn 0.7946 0.1876 -0.5774
vn 0.4911 0.7947 0.3568
vn -0.1876 0.7947 0.5774
vn -0.6071 0.7947 -0.0000
vn -0.1876 0.7947 -0.5774
vn 0.4911 0.7947 -0.3568
vn 0.4805 0.0881 -0.8726
vn 0.9995 0.0227 -0.0204
vn 0.5191 -0.0654 0.8522
vn -0.4805 -0.0881 0.8726
vn 0.0367 -0.9923 -0.1180
vn -0.9995 -0.0227 0.0204
vn -0.5191 0.0654 -0.8522
vn 0.0208 -0.9958 -0.0891
vn -0.8208 0.5670 0.0688
vn -0.0124 -0.9960 -0.0884
vn 0.0540 -0.9945 -0.0897
vn 0.0048 -0.9982 -0.0601
vn 0.0036 -0.9931 -0.1173
vn 0.0380 -0.9974 -0.0607
vn -0.0663 -0.9954 0.0699
vn 0.4077 0.5325 0.7418
vn 0.3764 0.6567 -0.6535
vn -0.4321 0.6383 -0.6370
vn -0.4009 0.5141 0.7582
vn 0.7963 0.6038 0.0359
vn 0.4226 0.4915 0.7615
vn 0.2009 -0.9753 -0.0913
vn -0.1600 -0.9835 -0.0839
vn 0.1142 -0.9913 0.0662
vn 0.1072 -0.9635 -0.2451
vn -0.0732 -0.9676 -0.2415
vn 0.1974 -0.9761 -0.0913
vn 0.3903 0.6199 -0.6807
vn -0.4454 0.6009 -0.6637
vn -0.4132 0.4725 0.7785
vn 0.8243 0.5652 0.0318
vn -0.8472 0.5272 0.0659
vn 0.3854 0.6334 -0.6711
vn -0.1565 -0.9841 -0.0841
vn 0.1124 -0.9917 0.0632
vn 0.1055 -0.9645 -0.2421
vn -0.0714 -0.9685 -0.2385
vn -0.0646 -0.9957 0.0668
vn -0.0208 0.9958 0.0891
vn -0.4407 0.6146 -0.6542
vn -0.4088 0.4877 0.7714
vn 0.8144 0.5793 0.0333
vn -0.8378 0.5418 0.0670
vn 0.4173 0.5065 0.7545
vn -0.8379 0.5418 0.0670
vt 0.708197 0.711458
vt 0.724879 0.711458
vt 0.724879 0.728141
vt 0.708197 0.728141
vt 0.724879 0.744823
vt 0.708197 0.744823
vt 0.724879 0.761506
vt 0.708197 0.761506
vt 0.724879 0.778188
vt 0.708197 0.778188
vt 0.691515 0.744823
vt 0.691515 0.761506
vt 0.704596 0.637927
vt 0.721278 0.637927
vt 0.721278 0.654609
vt 0.704596 0.654609
vt 0.023457 0.708768
vt 0.027668 0.716061
vt 0.019247 0.716061
vt 0.031879 0.708768
vt 0.036089 0.716061
vt 0.057142 0.708768
vt 0.061353 0.716061
vt 0.052932 0.716061
vt 0.048721 0.708768
vt 0.044510 0.716061
vt 0.040300 0.708768
vt 0.031879 0.723354
vt 0.023457 0.723354
vt 0.057142 0.723354
vt 0.048721 0.723354
vt 0.040300 0.723354
vt 0.015036 0.723354
vt 0.027668 0.730647
vt 0.019247 0.730647
vt 0.052932 0.730647
vt 0.044510 0.730647
vt 0.036089 0.730647
vt 0.432876 0.766435
vt 0.432876 0.788878
vt 0.425395 0.788878
vt 0.425395 0.766435
vt 0.417914 0.788878
vt 0.417914 0.766435
vt 0.410433 0.788878
vt 0.410433 0.766435
vt 0.402952 0.788878
vt 0.402952 0.766435
vt 0.335432 0.710381
vt 0.342913 0.710381
vt 0.395471 0.788878
vt 0.395471 0.766435
vt 0.387990 0.788878
vt 0.387990 0.766435
vt 0.354135 0.687488
vt 0.363465 0.682102
vt 0.363465 0.671329
vt 0.354135 0.665943
vt 0.344806 0.671329
vt 0.344806 0.682102
vt 0.327951 0.710381
vt 0.350394 0.710381
vt 0.357876 0.710381
vt 0.365357 0.710381
vt 0.320470 0.710381
vt 0.341021 0.682102
vt 0.331692 0.687488
vt 0.322362 0.682102
vt 0.322362 0.671329
vt 0.331692 0.665943
vt 0.341021 0.671329
s 0
usemtl Main_material
f 1/1/1 2/2/1 4/3/1 3/4/1
f 3/4/2 4/3/2 8/5/2 7/6/2
f 7/6/3 8/5/3 6/7/3 5/8/3
f 5/8/4 6/7/4 2/9/4 1/10/4
f 3/11/5 7/6/5 5/8/5 1/12/5
f 8/13/6 4/14/6 2/15/6 6/16/6
f 9/17/7 10/18/7 11/19/7
f 10/18/8 9/20/8 14/21/8
f 9/22/9 11/23/9 12/24/9
f 9/25/10 12/24/10 13/26/10
f 9/27/11 13/26/11 14/21/11
f 10/18/12 14/21/12 19/28/12
f 11/19/13 10/18/13 15/29/13
f 12/24/14 11/23/14 16/30/14
f 13/26/15 12/24/15 17/31/15
f 14/21/16 13/26/16 18/32/16
f 10/18/17 19/28/17 15/29/17
f 11/19/18 15/29/18 16/33/18
f 12/24/19 16/30/19 17/31/19
f 13/26/20 17/31/20 18/32/20
f 14/21/21 18/32/21 19/28/21
f 15/29/22 19/28/22 20/34/22
f 16/33/23 15/29/23 20/35/23
f 17/31/24 16/30/24 20/36/24
f 18/32/25 17/31/25 20/37/25
f 19/28/26 18/32/26 20/38/26
f 21/39/27 22/40/27 24/41/27 23/42/27
f 23/42/28 24/41/28 26/43/28 25/44/28
f 25/44/29 26/43/29 28/45/29 27/46/29
f 27/46/30 28/45/30 30/47/30 29/48/30
f 30/49/31 28/50/31 36/50/31 37/49/31
f 29/48/32 30/47/32 32/51/32 31/52/32
f 31/52/33 32/51/33 22/53/33 21/54/33
f 21/55/34 23/56/34 25/57/34 27/58/34 29/59/34 31/60/34
f 38/61/35 37/49/35 43/49/35 44/61/35
f 26/62/36 24/63/36 33/63/36 35/62/36
f 32/61/37 30/49/37 37/49/37 38/61/37
f 24/63/38 22/64/38 34/64/38 33/63/38
f 28/50/39 26/62/39 35/62/39 36/50/39
f 22/65/40 32/61/40 38/61/40 34/65/40
f 43/49/41 42/50/41 48/50/41 49/49/41
f 36/50/42 35/62/42 41/62/42 42/50/42
f 33/63/43 34/64/43 40/64/43 39/63/43
f 34/65/44 38/61/44 44/61/44 40/65/44
f 37/49/45 36/50/45 42/50/45 43/49/45
f 35/62/46 33/63/46 39/63/46 41/62/46
f 48/50/47 47/62/47 53/62/47 54/50/47
f 41/62/48 39/63/48 45/63/48 47/62/48
f 44/61/49 43/49/49 49/49/49 50/61/49
f 42/50/50 41/62/50 47/62/50 48/50/50
f 39/63/51 40/64/51 46/64/51 45/63/51
f 40/65/52 44/61/52 50/61/52 46/65/52
f 53/62/53 51/63/53 57/63/53 59/62/53
f 45/63/54 46/64/54 52/64/54 51/63/54
f 46/65/55 50/61/55 56/61/55 52/65/55
f 49/49/56 48/50/56 54/50/56 55/49/56
f 47/62/57 45/63/57 51/63/57 53/62/57
f 50/61/58 49/49/58 55/49/58 56/61/58
f 57/63/59 58/64/59 64/64/59 63/63/59
f 56/61/60 55/49/60 61/49/60 62/61/60
f 54/50/61 53/62/61 59/62/61 60/50/61
f 51/63/62 52/64/62 58/64/62 57/63/62
f 52/65/63 56/61/63 62/61/63 58/65/63
f 55/49/64 54/50/64 60/50/64 61/49/64
f 63/66/65 64/67/65 68/68/65 67/69/65 66/70/65 65/71/65
f 58/65/66 62/61/66 68/61/66 64/65/66
f 61/49/67 60/50/67 66/50/67 67/49/67
f 59/62/68 57/63/68 63/63/68 65/62/68
f 62/61/69 61/49/69 67/49/69 68/61/69
f 60/50/70 59/62/70 65/62/70 66/50/70
f 69/39/27 70/40/27 72/41/27 71/42/27
f 71/42/28 72/41/28 74/43/28 73/44/28
f 73/44/29 74/43/29 76/45/29 75/46/29
f 75/46/30 76/45/30 78/47/30 77/48/30
f 78/49/31 76/50/31 84/50/31 85/49/31
f 77/48/32 78/47/32 80/51/32 79/52/32
f 79/52/33 80/51/33 70/53/33 69/54/33
f 69/55/34 71/56/34 73/57/34 75/58/34 77/59/34 79/60/34
f 86/61/35 85/49/35 91/49/35 92/61/35
f 74/62/36 72/63/36 81/63/36 83/62/36
f 80/61/37 78/49/37 85/49/37 86/61/37
f 72/63/38 70/64/38 82/64/38 81/63/38
f 76/50/39 74/62/39 83/62/39 84/50/39
f 70/65/40 80/61/40 86/61/40 82/65/40
f 91/49/41 90/50/41 96/50/41 97/49/41
f 84/50/42 83/62/42 89/62/42 90/50/42
f 81/63/43 82/64/43 88/64/43 87/63/43
f 82/65/44 86/61/44 92/61/44 88/65/44
f 85/49/45 84/50/45 90/50/45 91/49/45
f 83/62/46 81/63/46 87/63/46 89/62/46
f 96/50/47 95/62/47 101/62/47 102/50/47
f 89/62/48 87/63/48 93/63/48 95/62/48
f 92/61/49 91/49/49 97/49/49 98/61/49
f 90/50/50 89/62/50 95/62/50 96/50/50
f 87/63/51 88/64/51 94/64/51 93/63/51
f 88/65/52 92/61/52 98/61/52 94/65/52
f 101/62/53 99/63/53 105/63/53 107/62/53
f 93/63/54 94/64/54 100/64/54 99/63/54
f 94/65/55 98/61/55 104/61/55 100/65/55
f 97/49/56 96/50/56 102/50/56 103/49/56
f 95/62/57 93/63/57 99/63/57 101/62/57
f 98/61/58 97/49/58 103/49/58 104/61/58
f 105/63/59 106/64/59 112/64/59 111/63/59
f 104/61/60 103/49/60 109/49/60 110/61/60
f 102/50/61 101/62/61 107/62/61 108/50/61
f 99/63/62 100/64/62 106/64/62 105/63/62
f 100/65/63 104/61/63 110/61/63 106/65/63
f 103/49/64 102/50/64 108/50/64 109/49/64
f 111/66/65 112/67/65 116/68/65 115/69/65 114/70/65 113/71/65
f 106/65/66 110/61/66 116/61/66 112/65/66
f 109/49/67 108/50/67 114/50/67 115/49/67
f 107/62/68 105/63/68 111/63/68 113/62/68
f 110/61/71 109/49/71 115/49/71 116/61/71
f 108/50/70 107/62/70 113/62/70 114/50/70
f 117/39/27 118/40/27 120/41/27 119/42/27
f 119/42/28 120/41/28 122/43/28 121/44/28
f 121/44/29 122/43/29 124/45/29 123/46/29
f 123/46/30 124/45/30 126/47/30 125/48/30
f 126/49/31 124/50/31 132/50/31 133/49/31
f 125/48/32 126/47/32 128/51/32 127/52/32
f 127/52/33 128/51/33 118/53/33 117/54/33
f 117/55/34 119/56/34 121/57/34 123/58/34 125/59/34 127/60/34
f 134/61/35 133/49/35 139/49/35 140/61/35
f 122/62/36 120/63/36 129/63/36 131/62/36
f 128/61/37 126/49/37 133/49/37 134/61/37
f 120/63/38 118/64/38 130/64/38 129/63/38
f 124/50/39 122/62/39 131/62/39 132/50/39
f 118/65/40 128/61/40 134/61/40 130/65/40
f 139/49/41 138/50/41 144/50/41 145/49/41
f 132/50/42 131/62/42 137/62/42 138/50/42
f 129/63/43 130/64/43 136/64/43 135/63/43
f 130/65/44 134/61/44 140/61/44 136/65/44
f 133/49/45 132/50/45 138/50/45 139/49/45
f 131/62/46 129/63/46 135/63/46 137/62/46
f 144/50/47 143/62/47 149/62/47 150/50/47
f 137/62/48 135/63/48 141/63/48 143/62/48
f 140/61/49 139/49/49 145/49/49 146/61/49
f 138/50/50 137/62/50 143/62/50 144/50/50
f 135/63/51 136/64/51 142/64/51 141/63/51
f 136/65/52 140/61/52 146/61/52 142/65/52
f 149/62/53 147/63/53 153/63/53 155/62/53
f 141/63/54 142/64/54 148/64/54 147/63/54
f 142/65/55 146/61/55 152/61/55 148/65/55
f 145/49/56 144/50/56 150/50/56 151/49/56
f 143/62/57 141/63/57 147/63/57 149/62/57
f 146/61/58 145/49/58 151/49/58 152/61/58
f 153/63/59 154/64/59 160/64/59 159/63/59
f 152/61/60 151/49/60 157/49/60 158/61/60
f 150/50/61 149/62/61 155/62/61 156/50/61
f 147/63/62 148/64/62 154/64/62 153/63/62
f 148/65/63 152/61/63 158/61/63 154/65/63
f 151/49/64 150/50/64 156/50/64 157/49/64
f 159/66/65 160/67/65 164/68/65 163/69/65 162/70/65 161/71/65
f 154/65/66 158/61/66 164/61/66 160/65/66
f 157/49/67 156/50/67 162/50/67 163/49/67
f 155/62/68 153/63/68 159/63/68 161/62/68
f 158/61/71 157/49/71 163/49/71 164/61/71
f 156/50/70 155/62/70 161/62/70 162/50/70
f 165/39/27 166/40/27 168/41/27 167/42/27
f 167/42/28 168/41/28 170/43/28 169/44/28
f 169/44/29 170/43/29 172/45/29 171/46/29
f 171/46/30 172/45/30 174/47/30 173/48/30
f 174/49/31 172/50/31 180/50/31 181/49/31
f 173/48/32 174/47/32 176/51/32 175/52/32
f 175/52/33 176/51/33 166/53/33 165/54/33
f 165/55/34 167/56/34 169/57/34 171/58/34 173/59/34 175/60/34
f 182/61/35 181/49/35 187/49/35 188/61/35
f 170/62/36 168/63/36 177/63/36 179/62/36
f 176/61/37 174/49/37 181/49/37 182/61/37
f 168/63/38 166/64/38 178/64/38 177/63/38
f 172/50/39 170/62/39 179/62/39 180/50/39
f 166/65/40 176/61/40 182/61/40 178/65/40
f 187/49/41 186/50/41 192/50/41 193/49/41
f 180/50/42 179/62/42 185/62/42 186/50/42
f 177/63/43 178/64/43 184/64/43 183/63/43
f 178/65/44 182/61/44 188/61/44 184/65/44
f 181/49/45 180/50/45 186/50/45 187/49/45
f 179/62/46 177/63/46 183/63/46 185/62/46
f 192/50/47 191/62/47 197/62/47 198/50/47
f 185/62/48 183/63/48 189/63/48 191/62/48
f 188/61/49 187/49/49 193/49/49 194/61/49
f 186/50/50 185/62/50 191/62/50 192/50/50
f 183/63/51 184/64/51 190/64/51 189/63/51
f 184/65/52 188/61/52 194/61/52 190/65/52
f 197/62/53 195/63/53 201/63/53 203/62/53
f 189/63/54 190/64/54 196/64/54 195/63/54
f 190/65/55 194/61/55 200/61/55 196/65/55
f 193/49/56 192/50/56 198/50/56 199/49/56
f 191/62/57 189/63/57 195/63/57 197/62/57
f 194/61/58 193/49/58 199/49/58 200/61/58
f 201/63/59 202/64/59 208/64/59 207/63/59
f 200/61/60 199/49/60 205/49/60 206/61/60
f 198/50/61 197/62/61 203/62/61 204/50/61
f 195/63/62 196/64/62 202/64/62 201/63/62
f 196/65/63 200/61/63 206/61/63 202/65/63
f 199/49/64 198/50/64 204/50/64 205/49/64
f 207/66/65 208/67/65 212/68/65 211/69/65 210/70/65 209/71/65
f 202/65/66 206/61/66 212/61/66 208/65/66
f 205/49/67 204/50/67 210/50/67 211/49/67
f 203/62/68 201/63/68 207/63/68 209/62/68
f 206/61/71 205/49/71 211/49/71 212/61/71
f 204/50/70 203/62/70 209/62/70 210/50/70
f 213/39/27 214/40/27 216/41/27 215/42/27
f 215/42/28 216/41/28 218/43/28 217/44/28
f 217/44/29 218/43/29 220/45/29 219/46/29
f 219/46/30 220/45/30 222/47/30 221/48/30
f 222/49/31 220/50/31 228/50/31 229/49/31
f 221/48/32 222/47/32 224/51/32 223/52/32
f 223/52/33 224/51/33 214/53/33 213/54/33
f 213/55/34 215/56/34 217/57/34 219/58/34 221/59/34 223/60/34
f 230/61/35 229/49/35 235/49/35 236/61/35
f 218/62/36 216/63/36 225/63/36 227/62/36
f 224/61/37 222/49/37 229/49/37 230/61/37
f 216/63/38 214/64/38 226/64/38 225/63/38
f 220/50/39 218/62/39 227/62/39 228/50/39
f 214/65/40 224/61/40 230/61/40 226/65/40
f 235/49/41 234/50/41 240/50/41 241/49/41
f 228/50/42 227/62/42 233/62/42 234/50/42
f 225/63/43 226/64/43 232/64/43 231/63/43
f 226/65/44 230/61/44 236/61/44 232/65/44
f 229/49/45 228/50/45 234/50/45 235/49/45
f 227/62/46 225/63/46 231/63/46 233/62/46
f 240/50/47 239/62/47 245/62/47 246/50/47
f 233/62/48 231/63/48 237/63/48 239/62/48
f 236/61/49 235/49/49 241/49/49 242/61/49
f 234/50/50 233/62/50 239/62/50 240/50/50
f 231/63/51 232/64/51 238/64/51 237/63/51
f 232/65/52 236/61/52 242/61/52 238/65/52
f 245/62/53 243/63/53 249/63/53 251/62/53
f 237/63/54 238/64/54 244/64/54 243/63/54
f 238/65/55 242/61/55 248/61/55 244/65/55
f 241/49/56 240/50/56 246/50/56 247/49/56
f 239/62/57 237/63/57 243/63/57 245/62/57
f 242/61/58 241/49/58 247/49/58 248/61/58
f 249/63/59 250/64/59 256/64/59 255/63/59
f 248/61/60 247/49/60 253/49/60 254/61/60
f 246/50/61 245/62/61 251/62/61 252/50/61
f 243/63/62 244/64/62 250/64/62 249/63/62
f 244/65/63 248/61/63 254/61/63 250/65/63
f 247/49/64 246/50/64 252/50/64 253/49/64
f 255/66/65 256/67/65 260/68/65 259/69/65 258/70/65 257/71/65
f 250/65/66 254/61/66 260/61/66 256/65/66
f 253/49/67 252/50/67 258/50/67 259/49/67
f 251/62/68 249/63/68 255/63/68 257/62/68
f 254/61/69 253/49/69 259/49/69 260/61/69
f 252/50/70 251/62/70 257/62/70 258/50/70
f 261/39/27 262/40/27 264/41/27 263/42/27
f 263/42/28 264/41/28 266/43/28 265/44/28
f 265/44/29 266/43/29 268/45/29 267/46/29
f 267/46/30 268/45/30 270/47/30 269/48/30
f 270/49/31 268/50/31 276/50/31 277/49/31
f 269/48/32 270/47/32 272/51/32 271/52/32
f 271/52/33 272/51/33 262/53/33 261/54/33
f 261/55/34 263/56/34 265/57/34 267/58/34 269/59/34 271/60/34
f 278/61/35 277/49/35 283/49/35 284/61/35
f 266/62/36 264/63/36 273/63/36 275/62/36
f 272/61/37 270/49/37 277/49/37 278/61/37
f 264/63/38 262/64/38 274/64/38 273/63/38
f 268/50/39 266/62/39 275/62/39 276/50/39
f 262/65/40 272/61/40 278/61/40 274/65/40
f 283/49/41 282/50/41 288/50/41 289/49/41
f 276/50/42 275/62/42 281/62/42 282/50/42
f 273/63/43 274/64/43 280/64/43 279/63/43
f 274/65/44 278/61/44 284/61/44 280/65/44
f 277/49/45 276/50/45 282/50/45 283/49/45
f 275/62/46 273/63/46 279/63/46 281/62/46
f 288/50/47 287/62/47 293/62/47 294/50/47
f 281/62/48 279/63/48 285/63/48 287/62/48
f 284/61/49 283/49/49 289/49/49 290/61/49
f 282/50/50 281/62/50 287/62/50 288/50/50
f 279/63/51 280/64/51 286/64/51 285/63/51
f 280/65/52 284/61/52 290/61/52 286/65/52
f 293/62/53 291/63/53 297/63/53 299/62/53
f 285/63/54 286/64/54 292/64/54 291/63/54
f 286/65/55 290/61/55 296/61/55 292/65/55
f 289/49/56 288/50/56 294/50/56 295/49/56
f 287/62/57 285/63/57 291/63/57 293/62/57
f 290/61/58 289/49/58 295/49/58 296/61/58
f 297/63/59 298/64/59 304/64/59 303/63/59
f 296/61/60 295/49/60 301/49/60 302/61/60
f 294/50/61 293/62/61 299/62/61 300/50/61
f 291/63/62 292/64/62 298/64/62 297/63/62
f 292/65/63 296/61/63 302/61/63 298/65/63
f 295/49/64 294/50/64 300/50/64 301/49/64
f 303/66/65 304/67/65 308/68/65 307/69/65 306/70/65 305/71/65
f 298/65/66 302/61/66 308/61/66 304/65/66
f 301/49/67 300/50/67 306/50/67 307/49/67
f 299/62/68 297/63/68 303/63/68 305/62/68
f 302/61/71 301/49/71 307/49/71 308/61/71
f 300/50/70 299/62/70 305/62/70 306/50/70
